<?xml version="1.0" encoding="UTF-8" standalone="no"?>
<svg
   xmlns:dc="http://purl.org/dc/elements/1.1/"
   xmlns:cc="http://creativecommons.org/ns#"
   xmlns:rdf="http://www.w3.org/1999/02/22-rdf-syntax-ns#"
   xmlns:svg="http://www.w3.org/2000/svg"
   xmlns="http://www.w3.org/2000/svg"
   xmlns:sodipodi="http://sodipodi.sourceforge.net/DTD/sodipodi-0.dtd"
   xmlns:inkscape="http://www.inkscape.org/namespaces/inkscape"
   width="297mm"
   height="297mm"
   viewBox="0 0 297 297"
   version="1.1"
   id="svg1115"
   inkscape:version="1.0.2 (e86c870879, 2021-01-15)"
   sodipodi:docname="the_circle_logo.svg">
  <defs
     id="defs1109" />
  <sodipodi:namedview
     id="base"
     pagecolor="#ffffff"
     bordercolor="#666666"
     borderopacity="1.0"
     inkscape:pageopacity="0.0"
     inkscape:pageshadow="2"
     inkscape:zoom="0.35"
     inkscape:cx="400"
     inkscape:cy="560"
     inkscape:document-units="mm"
     inkscape:current-layer="layer1"
     inkscape:document-rotation="0"
     showgrid="false"
     inkscape:window-width="1461"
     inkscape:window-height="1003"
     inkscape:window-x="227"
     inkscape:window-y="35"
     inkscape:window-maximized="0" />
  <metadata
     id="metadata1112">
    <rdf:RDF>
      <cc:Work
         rdf:about="">
        <dc:format>image/svg+xml</dc:format>
        <dc:type
           rdf:resource="http://purl.org/dc/dcmitype/StillImage" />
        <dc:title></dc:title>
      </cc:Work>
    </rdf:RDF>
  </metadata>
  <g
     inkscape:label="Layer 1"
     inkscape:groupmode="layer"
     id="layer1">
    <g
       id="g1692"
       transform="matrix(2.0905575,0,0,2.0905575,-86.973915,-214.98324)">
      <circle
         style="fill:#329f5e;fill-opacity:1;stroke:none;stroke-width:0.242515"
         id="path847"
         cx="112.6369"
         cy="173.86905"
         r="63.774952" />
      <path
         style="fill:#46e88b;fill-opacity:1;stroke-width:0.931012"
         d="m 114.38459,212.07478 v -3.67573 c -2.13886,-1.52481 -5.24441,-2.2584 -7.80598,-2.89936 -6.07801,-1.42527 -11.620319,-4.63659 -16.008319,-8.63253 -2.24286,-2.06741 -5.18694,-6.02566 -6.54241,-8.79613 -4.82226,-8.57961 -4.07881,-21.07563 -2.63124,-29.82042 0.6056,-4.6012 1.56867,-9.20512 1.95343,-10.32714 0.61267,-1.78669 1.37941,-2.09478 1.37941,-2.09478 0,0 7.00876,5.8907 14.51605,13.09044 l 13.649619,13.09043 1.44298,-1.80552 c 8.19052,-10.34964 15.83281,-16.28832 27.30415,-24.48937 3.47092,6.45698 3.6693,19.01983 3.05397,26.18234 -0.7634,12.59555 -11.16766,27.29555 -23.12199,28.86133 -0.7176,0 -1.79094,1.0671 -2.38517,2.37134 -0.59427,1.30423 -1.08047,3.7837 -1.08047,5.50993 0,1.72621 -0.25429,3.80128 -0.5651,4.61125 -0.31081,0.80996 -1.14873,1.47266 -1.86203,1.47266 h -1.2969 z m -2.31891,-13.75207 c -0.85808,-2.95171 -3.0442,-8.32446 -4.85803,-11.93943 -1.81384,-3.61497 -4.11175,-7.72481 -5.10646,-9.13296 -0.99472,-1.40815 -0.89336,-2.56029 -0.89336,-2.56029 0,0 2.68174,2.19952 4.84083,4.88781 2.15911,2.6883 5.33692,7.80867 7.0618,11.37863 1.72488,3.56993 3.17903,7.13105 3.23144,7.91359 0.0524,0.78253 0.41302,0.0878 0.80132,-1.54383 0.38832,-1.63165 0.3653,-5.12205 -0.0511,-7.75647 -0.41645,-2.63441 -1.88424,-6.74586 -3.26177,-9.13653 -3.31758,-6.60321 -9.46662,-11.1324 -14.683389,-16.21706 -6.69831,-6.52873 -12.44692,-11.8704 -12.77469,-11.8704 -1.98846,9.6265 -2.75604,18.19454 -0.76869,27.89945 0.55626,2.5937 2.33682,6.63724 3.9568,8.98565 1.61999,2.34841 4.64012,5.49651 6.71139,6.99578 2.07127,1.49927 6.679769,3.91692 10.241119,5.37256 3.56134,1.45563 6.61867,2.52143 6.79406,2.36843 0.17539,-0.153 -0.38318,-2.69323 -1.24127,-5.64493 z m 17.01949,-5.2103 c 10.07,-7.41502 12.14887,-18.96988 12.10996,-29.99316 l -0.27673,-9.24326 -3.90397,5.98473 c -4.42069,7.49687 -10.9829,12.8926 -15.80123,20.0542 l -1.41032,2.15241 1.10446,3.34653 c 0.60746,1.84061 0.95673,5.20402 0.77616,7.47425 l -0.32828,4.12772 c 2.88418,-0.7731 5.58761,-2.44723 7.72995,-3.90342 z m 5.5489,-34.04069 c 2.17624,-2.79839 3.9568,-5.26516 3.9568,-5.48175 -7.51189,5.04643 -16.19965,11.80964 -21.62225,19.44293 l -1.3907,2.12264 c 0.64761,1.02657 1.29524,2.05313 1.94287,3.0797 5.7979,-6.29187 11.83427,-12.43065 17.11328,-19.16352 z"
         id="path999"
         sodipodi:nodetypes="ccccccscscccccssssccsssssssssccccsssssccccccsscccccccc" />
    </g>
  </g>
</svg>
