<?xml version="1.0" encoding="UTF-8" standalone="no"?>
<svg
   xmlns:dc="http://purl.org/dc/elements/1.1/"
   xmlns:cc="http://creativecommons.org/ns#"
   xmlns:rdf="http://www.w3.org/1999/02/22-rdf-syntax-ns#"
   xmlns:svg="http://www.w3.org/2000/svg"
   xmlns="http://www.w3.org/2000/svg"
   xmlns:sodipodi="http://sodipodi.sourceforge.net/DTD/sodipodi-0.dtd"
   xmlns:inkscape="http://www.inkscape.org/namespaces/inkscape"
   width="297mm"
   height="297mm"
   viewBox="0 0 297 297"
   version="1.1"
   id="svg1115"
   inkscape:version="1.0.2 (e86c870879, 2021-01-15)"
   sodipodi:docname="the_circle_logo_no_circle.svg">
  <defs
     id="defs1109" />
  <sodipodi:namedview
     id="base"
     pagecolor="#ffffff"
     bordercolor="#666666"
     borderopacity="1.0"
     inkscape:pageopacity="0.0"
     inkscape:pageshadow="2"
     inkscape:zoom="0.35"
     inkscape:cx="239.06908"
     inkscape:cy="579.01821"
     inkscape:document-units="mm"
     inkscape:current-layer="layer1"
     inkscape:document-rotation="0"
     showgrid="false"
     inkscape:window-width="1461"
     inkscape:window-height="1003"
     inkscape:window-x="227"
     inkscape:window-y="35"
     inkscape:window-maximized="0" />
  <metadata
     id="metadata1112">
    <rdf:RDF>
      <cc:Work
         rdf:about="">
        <dc:format>image/svg+xml</dc:format>
        <dc:type
           rdf:resource="http://purl.org/dc/dcmitype/StillImage" />
        <dc:title />
      </cc:Work>
    </rdf:RDF>
  </metadata>
  <g
     inkscape:label="Layer 1"
     inkscape:groupmode="layer"
     id="layer1">
    <circle
       style="fill:#6ea30e;fill-opacity:0;stroke:none;stroke-width:0.506992"
       id="path847"
       cx="148.5"
       cy="148.5"
       r="133.32521" />
    <path
       style="fill:#7ab214;fill-opacity:1;stroke-width:2.74345"
       d="m 153.64996,242.3705 v -10.83143 c -6.30267,-4.49323 -15.45393,-6.65493 -23.00222,-8.54366 C 112.73741,218.7955 96.405649,209.33257 83.475352,197.55756 76.866217,191.46544 68.190772,179.80149 64.196551,171.63763 49.986592,146.35572 52.177348,109.53318 56.442964,83.764534 58.227511,70.205983 61.06543,56.639411 62.199219,53.333108 c 1.805381,-5.264916 4.064766,-6.172777 4.064766,-6.172777 0,0 20.653005,17.358377 42.775055,38.57416 l 40.22192,38.574129 4.25209,-5.32041 c 24.13534,-30.497727 46.65521,-47.997489 80.4583,-72.163868 10.2279,19.027052 10.81248,56.046538 8.99926,77.152608 -2.24955,37.11586 -32.90822,80.43296 -68.13455,85.04691 -2.11459,0 -5.27745,3.14448 -7.02849,6.98774 -1.75115,3.84322 -3.18386,11.14959 -3.18386,16.23634 0,5.08669 -0.74933,11.2014 -1.66521,13.58816 -0.91587,2.38674 -3.385,4.33956 -5.48692,4.33956 h -3.82162 z m -6.83324,-40.52381 c -2.52854,-8.69793 -8.97047,-24.53003 -14.31536,-35.18243 -5.34493,-10.65238 -12.11627,-22.76303 -15.04743,-26.91247 -2.93118,-4.14946 -2.6325,-7.54452 -2.6325,-7.54452 0,0 7.90239,6.48143 14.26469,14.40312 6.36233,7.92173 15.72652,23.01013 20.80931,33.52989 5.08277,10.51966 9.36777,21.01337 9.52222,23.31932 0.1544,2.30591 1.21706,0.25872 2.36127,-4.54928 1.14429,-4.80805 1.07645,-15.09336 -0.15058,-22.85632 -1.22717,-7.76292 -5.55237,-19.8783 -9.61159,-26.923 -9.77605,-19.45796 -27.8957,-32.80431 -43.26816,-47.78749 C 89.010396,82.105016 72.070718,66.364484 71.104864,66.364484 c -5.859479,28.366817 -8.12134,53.614626 -2.265132,82.212506 1.639156,7.64297 6.886008,19.55823 11.659668,26.47838 4.77369,6.92017 13.673242,16.1968 19.77674,20.61477 6.1035,4.41797 19.68356,11.54215 30.17795,15.83155 10.49434,4.28937 19.50351,7.43 20.02034,6.97916 0.51682,-0.45086 -1.12914,-7.93626 -3.65771,-16.63416 z m 50.15206,-15.35341 c 29.67369,-21.85016 35.79959,-55.89935 35.68492,-88.382121 l -0.81545,-27.237515 -11.50399,17.635473 c -13.02664,22.091333 -32.36377,37.991173 -46.56215,59.094563 l -4.15586,6.34259 3.25456,9.86137 c 1.79003,5.4238 2.81924,15.3349 2.28715,22.02469 l -0.96736,12.16332 c 8.49893,-2.27813 16.46525,-7.21135 22.77818,-11.50237 z M 213.31995,86.184137 c 6.41282,-8.246146 11.65968,-15.515075 11.65968,-16.153319 -22.13561,14.870545 -47.7362,34.799982 -63.71521,57.293322 l -4.09804,6.25487 c 1.90835,3.02503 3.81675,6.05004 5.72514,9.07508 17.08493,-18.54052 34.87256,-36.62992 50.42843,-56.469953 z"
       id="path999"
       sodipodi:nodetypes="ccccccscscccccssssccsssssssssccccsssssccccccsscccccccc" />
  </g>
</svg>
